<?xml version="1.0" standalone="no"?>
<!DOCTYPE svg PUBLIC "-//W3C//DTD SVG 20010904//EN"
 "http://www.w3.org/TR/2001/REC-SVG-20010904/DTD/svg10.dtd">
<svg version="1.0" xmlns="http://www.w3.org/2000/svg"
 width="512.000000pt" height="512.000000pt" viewBox="0 0 512.000000 512.000000"
 preserveAspectRatio="xMidYMid meet">
<metadata>
Created by potrace 1.11, written by Peter Selinger 2001-2013
</metadata>
<g transform="translate(0.000000,512.000000) scale(0.100000,-0.100000)"
fill="#000000" stroke="none">
<path d="M2425 4764 c-16 -2 -82 -9 -145 -15 -141 -14 -376 -73 -527 -133
-578 -227 -1029 -680 -1263 -1266 -57 -144 -117 -386 -137 -549 -19 -164 -13
-466 12 -611 53 -310 165 -598 336 -860 87 -133 157 -220 276 -340 l83 -86
-27 -26 c-34 -31 -162 -133 -465 -368 l-226 -175 1196 -3 c1265 -3 1292 -2
1502 44 652 143 1210 580 1511 1183 307 614 307 1348 0 1971 -193 390 -506
724 -885 944 -229 133 -531 238 -783 271 -108 15 -402 27 -458 19z m-200
-1508 c47 -63 85 -119 85 -124 0 -15 -66 -62 -111 -77 -133 -47 -198 -150
-201 -314 -1 -99 25 -160 107 -251 75 -84 110 -157 101 -214 -15 -107 -57
-175 -160 -259 -48 -39 -62 -45 -118 -51 -160 -16 -302 54 -368 183 -38 76
-53 166 -47 291 14 268 122 504 324 702 89 88 268 228 291 228 6 0 50 -51 97
-114z m1005 0 c45 -60 83 -114 86 -120 3 -12 -77 -76 -96 -76 -27 0 -111 -53
-144 -91 -50 -59 -70 -126 -71 -234 0 -79 3 -96 27 -140 15 -27 52 -79 83
-113 72 -82 95 -129 95 -190 0 -81 -26 -137 -97 -213 -97 -102 -118 -113 -227
-112 -101 0 -151 15 -224 67 -24 16 -52 45 -64 64 l-20 33 41 90 c63 135 82
220 88 387 5 136 4 147 -22 227 l-27 84 33 47 c57 83 143 177 230 250 107 90
200 155 215 152 7 -2 49 -52 94 -112z"/>
</g>
</svg>
