<?xml version="1.0" standalone="no"?>
<!DOCTYPE svg PUBLIC "-//W3C//DTD SVG 20010904//EN"
 "http://www.w3.org/TR/2001/REC-SVG-20010904/DTD/svg10.dtd">
<svg version="1.0" xmlns="http://www.w3.org/2000/svg"
 width="512.000000pt" height="512.000000pt" viewBox="0 0 512.000000 512.000000"
 preserveAspectRatio="xMidYMid meet">
<metadata>
Created by potrace 1.11, written by Peter Selinger 2001-2013
</metadata>
<g transform="translate(0.000000,512.000000) scale(0.100000,-0.100000)"
fill="#000000" stroke="none">
<path d="M2826 4852 c-2 -9 -6 -1046 -8 -2304 l-3 -2286 -35 -6 c-145 -26
-444 -14 -648 25 -106 20 -231 55 -245 68 -4 4 18 49 48 100 31 50 53 97 49
103 -4 7 -3 8 4 4 8 -5 12 2 12 18 0 14 5 26 11 26 5 0 8 4 4 9 -3 5 2 17 11
25 8 9 13 16 11 16 -3 0 4 24 15 52 150 389 198 648 198 1068 -1 441 -68 778
-220 1097 -244 512 -680 863 -1215 978 -186 40 -172 43 -233 -50 -67 -101
-180 -330 -227 -460 -33 -88 -105 -351 -105 -381 0 -8 15 -10 44 -7 82 10 357
-50 378 -81 4 -6 8 -7 8 -2 0 5 7 3 15 -4 8 -7 28 -20 45 -29 88 -48 208 -187
273 -316 110 -219 150 -474 135 -855 -12 -306 -71 -531 -191 -724 l-24 -38
-67 67 c-140 140 -283 338 -386 537 -33 62 -60 109 -60 104 0 -21 126 -249
195 -351 321 -476 790 -813 1329 -956 242 -64 326 -74 621 -73 288 0 362 7
565 59 773 196 1408 785 1654 1536 90 273 121 494 113 799 -9 365 -75 633
-233 956 -323 658 -950 1133 -1669 1264 -172 32 -163 31 -169 12z m1172 -2197
c-3 -3 10 -22 28 -42 18 -20 31 -40 29 -44 -3 -4 -2 -9 3 -11 13 -5 54 -101
54 -125 0 -13 4 -20 9 -17 9 5 13 -9 10 -33 -1 -7 3 -13 9 -13 5 0 10 -8 10
-18 0 -10 12 -47 26 -83 15 -35 102 -261 194 -501 l167 -437 -47 -73 c-104
-163 -295 -370 -447 -485 l-80 -61 -7 511 c-4 282 -11 602 -16 712 -5 110 -12
304 -16 432 -8 265 -3 293 49 293 17 0 28 -2 25 -5z"/>
<path d="M390 1675 c0 -5 5 -17 10 -25 5 -8 10 -10 10 -5 0 6 -5 17 -10 25 -5
8 -10 11 -10 5z"/>
</g>
</svg>
